<mxfile host="65bd71144e">
    <diagram id="mR5m6J1asoCLaKJ7XmaP" name="Page-1">
        <mxGraphModel dx="1786" dy="638" grid="0" gridSize="10" guides="0" tooltips="1" connect="1" arrows="1" fold="1" page="0" pageScale="1" pageWidth="850" pageHeight="1100" math="0" shadow="0">
            <root>
                <mxCell id="0"/>
                <mxCell id="1" parent="0"/>
                <mxCell id="2" value="App" style="whiteSpace=wrap;html=1;fillColor=#003366;" parent="1" vertex="1">
                    <mxGeometry x="60" y="80" width="450" height="100" as="geometry"/>
                </mxCell>
                <mxCell id="3" value="User&lt;br&gt;" style="whiteSpace=wrap;html=1;fillColor=#994C00;" parent="1" vertex="1">
                    <mxGeometry x="380" y="220" width="140" height="90" as="geometry"/>
                </mxCell>
                <mxCell id="4" value="Profile" style="whiteSpace=wrap;html=1;fillColor=#994C00;" parent="1" vertex="1">
                    <mxGeometry x="330" y="340" width="110" height="80" as="geometry"/>
                </mxCell>
                <mxCell id="5" value="Library" style="whiteSpace=wrap;html=1;fillColor=#336600;" parent="1" vertex="1">
                    <mxGeometry x="670" y="220" width="140" height="90" as="geometry"/>
                </mxCell>
                <mxCell id="6" value="AssetCard" style="whiteSpace=wrap;html=1;fillColor=#336600;" parent="1" vertex="1">
                    <mxGeometry x="620" y="340" width="130" height="80" as="geometry"/>
                </mxCell>
                <mxCell id="17" value="" style="edgeStyle=none;html=1;entryX=0.844;entryY=0.991;entryDx=0;entryDy=0;entryPerimeter=0;exitX=0.454;exitY=0.001;exitDx=0;exitDy=0;exitPerimeter=0;" parent="1" source="3" target="2" edge="1">
                    <mxGeometry relative="1" as="geometry"/>
                </mxCell>
                <mxCell id="7" value="Signup" style="whiteSpace=wrap;html=1;fillColor=#CC0066;" parent="1" vertex="1">
                    <mxGeometry x="93" y="219" width="119" height="90" as="geometry"/>
                </mxCell>
                <mxCell id="8" value="Header" style="whiteSpace=wrap;html=1;fillColor=#006666;" parent="1" vertex="1">
                    <mxGeometry x="-50" y="220" width="112" height="90" as="geometry"/>
                </mxCell>
                <mxCell id="9" value="NavBar" style="whiteSpace=wrap;html=1;fillColor=#006666;" parent="1" vertex="1">
                    <mxGeometry x="-50" y="340" width="115" height="90" as="geometry"/>
                </mxCell>
                <mxCell id="10" value="Search" style="whiteSpace=wrap;html=1;fillColor=#666600;" parent="1" vertex="1">
                    <mxGeometry x="-240" y="220" width="150" height="90" as="geometry"/>
                </mxCell>
                <mxCell id="11" value="UpdateProfile" style="whiteSpace=wrap;html=1;fillColor=#994C00;" parent="1" vertex="1">
                    <mxGeometry x="450" y="340" width="130" height="80" as="geometry"/>
                </mxCell>
                <mxCell id="12" value="AssetUpdate" style="whiteSpace=wrap;html=1;fillColor=#336600;" parent="1" vertex="1">
                    <mxGeometry x="760" y="340" width="120" height="80" as="geometry"/>
                </mxCell>
                <mxCell id="14" value="" style="curved=1;endArrow=classic;html=1;exitX=0.364;exitY=-0.032;exitDx=0;exitDy=0;exitPerimeter=0;entryX=0;entryY=0.5;entryDx=0;entryDy=0;" parent="1" source="10" target="2" edge="1">
                    <mxGeometry width="50" height="50" relative="1" as="geometry">
                        <mxPoint x="-180" y="180" as="sourcePoint"/>
                        <mxPoint x="-130" y="130" as="targetPoint"/>
                        <Array as="points">
                            <mxPoint x="-180" y="130"/>
                        </Array>
                    </mxGeometry>
                </mxCell>
                <mxCell id="15" value="" style="curved=1;endArrow=classic;html=1;entryX=0;entryY=0.75;entryDx=0;entryDy=0;" parent="1" target="2" edge="1">
                    <mxGeometry width="50" height="50" relative="1" as="geometry">
                        <mxPoint x="-10" y="220" as="sourcePoint"/>
                        <mxPoint x="40" y="170" as="targetPoint"/>
                        <Array as="points">
                            <mxPoint x="-10" y="170"/>
                        </Array>
                    </mxGeometry>
                </mxCell>
                <mxCell id="16" value="" style="endArrow=classic;html=1;entryX=0.25;entryY=1;entryDx=0;entryDy=0;exitX=0.5;exitY=0;exitDx=0;exitDy=0;" parent="1" target="2" edge="1" source="7">
                    <mxGeometry width="50" height="50" relative="1" as="geometry">
                        <mxPoint x="220" y="220" as="sourcePoint"/>
                        <mxPoint x="220" y="190" as="targetPoint"/>
                    </mxGeometry>
                </mxCell>
                <mxCell id="18" value="" style="endArrow=classic;html=1;entryX=0.25;entryY=1;entryDx=0;entryDy=0;exitX=0.75;exitY=0;exitDx=0;exitDy=0;" parent="1" source="4" target="3" edge="1">
                    <mxGeometry width="50" height="50" relative="1" as="geometry">
                        <mxPoint x="280" y="490" as="sourcePoint"/>
                        <mxPoint x="330" y="440" as="targetPoint"/>
                    </mxGeometry>
                </mxCell>
                <mxCell id="19" value="" style="endArrow=classic;html=1;entryX=0.661;entryY=1.012;entryDx=0;entryDy=0;exitX=0.5;exitY=0;exitDx=0;exitDy=0;entryPerimeter=0;" parent="1" source="11" target="3" edge="1">
                    <mxGeometry width="50" height="50" relative="1" as="geometry">
                        <mxPoint x="422.5" y="350" as="sourcePoint"/>
                        <mxPoint x="425" y="320" as="targetPoint"/>
                    </mxGeometry>
                </mxCell>
                <mxCell id="21" value="" style="curved=1;endArrow=classic;html=1;entryX=1;entryY=0.5;entryDx=0;entryDy=0;exitX=0.626;exitY=-0.01;exitDx=0;exitDy=0;exitPerimeter=0;" parent="1" source="5" target="2" edge="1">
                    <mxGeometry width="50" height="50" relative="1" as="geometry">
                        <mxPoint x="720" y="220" as="sourcePoint"/>
                        <mxPoint x="770" y="170" as="targetPoint"/>
                        <Array as="points">
                            <mxPoint x="720" y="170"/>
                        </Array>
                    </mxGeometry>
                </mxCell>
                <mxCell id="22" value="" style="endArrow=classic;html=1;entryX=0.5;entryY=1;entryDx=0;entryDy=0;exitX=0.5;exitY=0;exitDx=0;exitDy=0;" parent="1" source="9" target="8" edge="1">
                    <mxGeometry width="50" height="50" relative="1" as="geometry">
                        <mxPoint x="280" y="490" as="sourcePoint"/>
                        <mxPoint x="330" y="440" as="targetPoint"/>
                    </mxGeometry>
                </mxCell>
                <mxCell id="23" value="" style="endArrow=classic;html=1;entryX=0.25;entryY=1;entryDx=0;entryDy=0;exitX=0.5;exitY=0;exitDx=0;exitDy=0;" parent="1" source="6" target="5" edge="1">
                    <mxGeometry width="50" height="50" relative="1" as="geometry">
                        <mxPoint x="280" y="490" as="sourcePoint"/>
                        <mxPoint x="330" y="440" as="targetPoint"/>
                    </mxGeometry>
                </mxCell>
                <mxCell id="24" value="" style="endArrow=classic;html=1;entryX=0.75;entryY=1;entryDx=0;entryDy=0;exitX=0.5;exitY=0;exitDx=0;exitDy=0;" parent="1" source="12" target="5" edge="1">
                    <mxGeometry width="50" height="50" relative="1" as="geometry">
                        <mxPoint x="280" y="490" as="sourcePoint"/>
                        <mxPoint x="330" y="440" as="targetPoint"/>
                    </mxGeometry>
                </mxCell>
                <mxCell id="25" value="Login" style="whiteSpace=wrap;html=1;fillColor=#CC0066;" vertex="1" parent="1">
                    <mxGeometry x="233" y="218" width="119" height="90" as="geometry"/>
                </mxCell>
                <mxCell id="26" value="" style="endArrow=classic;html=1;exitX=0.5;exitY=0;exitDx=0;exitDy=0;" edge="1" parent="1" source="25">
                    <mxGeometry width="50" height="50" relative="1" as="geometry">
                        <mxPoint x="252" y="374" as="sourcePoint"/>
                        <mxPoint x="285" y="181" as="targetPoint"/>
                    </mxGeometry>
                </mxCell>
                <mxCell id="27" value="AssetCreate" style="whiteSpace=wrap;html=1;fillColor=#336600;" vertex="1" parent="1">
                    <mxGeometry x="900" y="340" width="120" height="80" as="geometry"/>
                </mxCell>
                <mxCell id="29" value="" style="curved=1;endArrow=classic;html=1;entryX=1.006;entryY=0.587;entryDx=0;entryDy=0;entryPerimeter=0;" edge="1" parent="1" target="5">
                    <mxGeometry width="50" height="50" relative="1" as="geometry">
                        <mxPoint x="987" y="338" as="sourcePoint"/>
                        <mxPoint x="514" y="113" as="targetPoint"/>
                        <Array as="points">
                            <mxPoint x="994" y="338"/>
                            <mxPoint x="932" y="253"/>
                        </Array>
                    </mxGeometry>
                </mxCell>
            </root>
        </mxGraphModel>
    </diagram>
</mxfile>